<?xml version="1.0" encoding="iso-8859-1"?>
<!-- Generator: Adobe Illustrator 25.0.0, SVG Export Plug-In . SVG Version: 6.00 Build 0)  -->
<svg version="1.1" baseProfile="basic" id="Layer_1"
	 xmlns="http://www.w3.org/2000/svg" xmlns:xlink="http://www.w3.org/1999/xlink" x="0px" y="0px" viewBox="0 0 64 64"
	 xml:space="preserve">
<path d="M50,20c0-1.105-0.895-2-2-2H16c-1.105,0-2,0.895-2,2v24c0,1.105,0.895,2,2,2h32c1.105,0,2-0.895,2-2V20z M54,20v24
	c0,3.314-2.686,6-6,6H16c-3.314,0-6-2.686-6-6V20c0-3.314,2.686-6,6-6h32C51.314,14,54,16.686,54,20z"/>
<path d="M46,33c0,0.552-0.448,1-1,1H31c-0.552,0-1-0.448-1-1V23c0-0.552,0.448-1,1-1h14c0.552,0,1,0.448,1,1V33z"/>
</svg>