<?xml version="1.0" encoding="iso-8859-1"?>
<!-- Generator: Adobe Illustrator 25.4.1, SVG Export Plug-In . SVG Version: 6.00 Build 0)  -->
<svg version="1.1" baseProfile="basic" id="Layer_1"
	 xmlns="http://www.w3.org/2000/svg" xmlns:xlink="http://www.w3.org/1999/xlink" x="0px" y="0px" viewBox="0 0 64 64"
	 xml:space="preserve">
<path d="M46.275,52h-4.345v-4h4.345C47.227,48,48,47.227,48,46.276v-4.345h4v4.345C52,49.432,49.432,52,46.275,52z"/>
<path d="M52,22.069h-4v-4.345C48,16.773,47.227,16,46.275,16h-4.345v-4h4.345C49.432,12,52,14.568,52,17.724V22.069z"/>
<path d="M22.069,52h-4.345C14.568,52,12,49.432,12,46.276v-4.345h4v4.345C16,47.227,16.773,48,17.725,48h4.345V52z"/>
<path d="M16,22.069h-4v-4.345C12,14.568,14.568,12,17.725,12h4.345v4h-4.345C16.773,16,16,16.773,16,17.724V22.069z"/>
</svg>