<?xml version="1.0" encoding="iso-8859-1"?>
<!-- Generator: Adobe Illustrator 25.4.1, SVG Export Plug-In . SVG Version: 6.00 Build 0)  -->
<svg version="1.1" baseProfile="basic" id="Layer_1"
	 xmlns="http://www.w3.org/2000/svg" xmlns:xlink="http://www.w3.org/1999/xlink" x="0px" y="0px" viewBox="0 0 72 72"
	 xml:space="preserve">
<path d="M51,56h-6.069v-8H48.8c0.11,0,0.2-0.09,0.2-0.2v-3.869h8V50C57,53.314,54.314,56,51,56z"/>
<path d="M57,28.069h-8V24.2c0-0.11-0.09-0.2-0.2-0.2h-3.869v-8H51c3.314,0,6,2.686,6,6V28.069z"/>
<path d="M27.069,56H21c-3.314,0-6-2.686-6-6v-6.069h8V47.8c0,0.11,0.09,0.2,0.2,0.2h3.869V56z"/>
<path d="M23,28.069h-8V22c0-3.314,2.686-6,6-6h6.069v8H23.2c-0.11,0-0.2,0.09-0.2,0.2V28.069z"/>
</svg>