<?xml version="1.0" encoding="iso-8859-1"?>
<!-- Generator: Adobe Illustrator 25.4.1, SVG Export Plug-In . SVG Version: 6.00 Build 0)  -->
<svg version="1.1" baseProfile="basic" id="Layer_1"
	 xmlns="http://www.w3.org/2000/svg" xmlns:xlink="http://www.w3.org/1999/xlink" x="0px" y="0px" viewBox="0 0 72 72"
	 xml:space="preserve">
<path d="M13.209,23.939l4.243-4.243c3.124-3.124,8.19-3.124,11.314,0l7.241,7.241l7.241-7.241c3.124-3.124,8.189-3.124,11.314,0
	l4.23,4.23c3.134,3.134,3.123,8.219-0.025,11.339L41.548,52.329c-3.128,3.1-8.174,3.089-11.288-0.025l-17.05-17.051
	C10.085,32.129,10.085,27.064,13.209,23.939z M22.401,26.061l-2.828,2.828c-0.391,0.391-0.391,1.024,0,1.414l15.639,15.639
	c0.389,0.389,1.02,0.391,1.411,0.003L52.42,30.291c0.394-0.39,0.395-1.026,0.003-1.417l-2.812-2.812c-0.391-0.39-1.024-0.39-1.414,0
	L36.713,37.544c-0.391,0.391-1.024,0.391-1.414,0L23.816,26.061C23.425,25.671,22.792,25.671,22.401,26.061z"/>
</svg>