<?xml version="1.0" encoding="iso-8859-1"?>
<!-- Generator: Adobe Illustrator 23.0.3, SVG Export Plug-In . SVG Version: 6.00 Build 0)  -->
<svg version="1.1" id="Layer_1" xmlns="http://www.w3.org/2000/svg" xmlns:xlink="http://www.w3.org/1999/xlink" x="0px" y="0px"
	 viewBox="0 0 48 48" style="enable-background:new 0 0 48 48;" xml:space="preserve">
<path style="fill:#FFE082;" d="M28,9C17.506,9,9,17.506,9,28s8.506,19,19,19s19-8.506,19-19S38.494,9,28,9L28,9z"/>
<path style="fill:none;stroke:#18193F;stroke-width:3;stroke-linecap:round;stroke-linejoin:round;stroke-miterlimit:10;" d="
	M33.502,40.458C39.18,37.172,43,31.033,43,24c0-10.494-8.506-19-19-19l0,0"/>
<path style="fill:none;stroke:#18193F;stroke-width:3;stroke-linecap:round;stroke-linejoin:round;stroke-miterlimit:10;" d="
	M14.142,7.754C8.661,11.087,5,17.116,5,24c0,10.494,8.506,19,19,19c0.137,0,0.273-0.001,0.409-0.004"/>
<path style="fill:none;stroke:#18193F;stroke-width:3;stroke-linecap:round;stroke-linejoin:round;stroke-miterlimit:10;" d="
	M17.455,33.954c6.545,0,7.364-2.455,10.636-2.455c2.045,0,3.273,0.818,3.273,0.818"/>
<path style="fill:none;stroke:#18193F;stroke-width:3;stroke-linecap:round;stroke-linejoin:round;stroke-miterlimit:10;" d="
	M35.455,18.954c-5.523-1.227-8.182-2.455-8.182-2.455"/>
<path style="fill:none;stroke:#18193F;stroke-width:3;stroke-linecap:round;stroke-linejoin:round;stroke-miterlimit:10;" d="
	M12.545,18.136c0,0,1.549-2.347,4.772-3.573c1.638-0.622,3.409-0.51,3.409-0.51"/>
<path style="fill:#18193F;" d="M33,23.863c0,0.249-0.037,0.489-0.106,0.715c-0.307,1.007-1.242,1.739-2.349,1.739
	c-1.356,0-2.455-1.099-2.455-2.455c0-1.356,1.099-2.455,2.455-2.455c1.069,0,1.979,0.684,2.315,1.639
	C32.951,23.303,33,23.578,33,23.863z"/>
<path style="fill:#18193F;" d="M19.909,23.863c0,0.349-0.073,0.682-0.205,0.982c-0.379,0.867-1.244,1.473-2.25,1.473
	c-1.356,0-2.455-1.099-2.455-2.455c0-1.356,1.099-2.455,2.455-2.455c0.924,0,1.729,0.511,2.148,1.265
	C19.798,23.026,19.909,23.432,19.909,23.863z"/>
</svg>